<?xml version="1.0" encoding="UTF-8"?>
<svg id="Layer_2" data-name="Layer 2" xmlns="http://www.w3.org/2000/svg" viewBox="0 0 60.1 57.8">
  <defs>
    <style>
      .cls-1 {
        fill: #d3cec3;
      }
    </style>
  </defs>
  <g id="Layer_2-2" data-name="Layer 2">
    <g id="Layer_1-2" data-name="Layer 1-2">
      <g>
        <path class="cls-1" d="M49.2,0c-.7,1.9-1.4,3.8-2.1,5.7-1.5,4.3-2.9,8.7-3.7,13.2-.7,3.7-1,7.4-.6,11.1.4,3.6,1.6,7,3.2,10.2,2.1,4,4.7,7.7,7.5,11.2,1.5,1.9,2.9,3.8,4.4,5.8.1.2.4.3.3.6-1-1.1-2-2.2-3-3.2-3.5-3.8-7.1-7.6-11-10.9-4.1-3.5-8.6-6.4-13.8-7.9-3-.9-6-1.4-9.1-1.8-6.6-.8-13.3-.8-20-.8H0c.3.2.5,0,.8,0,4-.3,8.1-.5,12.1-.9,4.5-.4,9-1,13.3-2.4,5.3-1.6,9.5-4.8,12.6-9.4,2.5-3.6,4.5-7.5,6.3-11.5,1.3-2.8,2.5-5.6,3.7-8.4,0-.2.2-.4.2-.5h0l.2-.1Z"/>
        <path class="cls-1" d="M27.2,56.1c1.4-4.5,2.7-8.9,3.4-13.5.3-1.6.4-3.2.5-4.9,0-.5.1-.5.5-.4,1.7.6,3.3,1.4,4.8,2.2.2.1.4.2.1.4-2.7,2.9-4.5,6.4-6.2,9.9-.9,1.9-1.8,3.8-2.7,5.7,0,.2-.1.4-.4.5h0v.1Z"/>
        <path class="cls-1" d="M60,31.3c-1.9.2-3.7.4-5.6.7-3,.5-5.9,1.1-8.8,2.2-.7.3-.6.3-.8-.4-.4-1.4-.6-2.8-.8-4.2,0-.4,0-.6.5-.4,4.4,1.1,9,1.6,13.6,1.9h1.6c.1,0,.3,0,.4.2h-.1Z"/>
        <path class="cls-1" d="M23.7,16.2c1.7,1.7,3.3,3.3,5.1,4.8,1.4,1.2,2.8,2.2,4.3,3.2.3.2.3.3,0,.6-1,.8-2.1,1.5-3.3,2.1-.2.1-.4.2-.5-.1-1.3-3.8-3.4-7.1-5.7-10.3,0,0,0-.1-.1-.2v-.1h.2Z"/>
      </g>
    </g>
  </g>
</svg>