<?xml version="1.0" encoding="UTF-8"?>
<svg id="Layer_2" xmlns="http://www.w3.org/2000/svg" version="1.1" viewBox="0 0 497.7 144.8">
  <!-- Generator: Adobe Illustrator 30.0.0, SVG Export Plug-In . SVG Version: 2.1.1 Build 123)  -->
  <defs>
    <style>
      .st0 {
        fill: #d3cec3;
      }
    </style>
  </defs>
  <g id="Layer_1-2">
    <g>
      <path class="st0" d="M78.8,49.5c-.7,1.9-1.4,3.8-2.1,5.7-1.5,4.3-2.9,8.7-3.7,13.2-.7,3.7-1,7.4-.6,11.1.4,3.6,1.6,7,3.2,10.2,2.1,4,4.7,7.7,7.5,11.2,1.5,1.9,2.9,3.8,4.4,5.8,0,.2.4.3.3.6-1-1.1-2-2.2-3-3.2-3.5-3.8-7.1-7.6-11-10.9-4.1-3.5-8.6-6.4-13.8-7.9-3-.9-6-1.4-9.1-1.8-6.6-.8-13.3-.8-20-.8h-1.3c.3.2.5,0,.8,0,4-.3,8.1-.5,12.1-.9,4.5-.4,9-1,13.3-2.4,5.3-1.6,9.5-4.8,12.6-9.4,2.5-3.6,4.5-7.5,6.3-11.5,1.3-2.8,2.5-5.6,3.7-8.4,0-.2.2-.4.2-.5h.2Z"/>
      <path class="st0" d="M56.8,105.6c1.4-4.5,2.7-8.9,3.4-13.5.3-1.6.4-3.2.5-4.9,0-.5,0-.5.5-.4,1.7.6,3.3,1.4,4.8,2.2.2,0,.4.2,0,.4-2.7,2.9-4.5,6.4-6.2,9.9-.9,1.9-1.8,3.8-2.7,5.7,0,.2,0,.4-.4.5h0Z"/>
      <path class="st0" d="M89.6,80.8c-1.9.2-3.7.4-5.6.7-3,.5-5.9,1.1-8.8,2.2-.7.3-.6.3-.8-.4-.4-1.4-.6-2.8-.8-4.2,0-.4,0-.6.5-.4,4.4,1.1,9,1.6,13.6,1.9h1.6c0,0,.3,0,.4.2h0Z"/>
      <path class="st0" d="M53.3,65.7c1.7,1.7,3.3,3.3,5.1,4.8,1.4,1.2,2.8,2.2,4.3,3.2.3.2.3.3,0,.6-1,.8-2.1,1.5-3.3,2.1-.2,0-.4.2-.5,0-1.3-3.8-3.4-7.1-5.7-10.3,0,0,0,0,0-.2h0c0,0,.2,0,.2,0Z"/>
    </g>
  </g>
</svg>