<?xml version="1.0" encoding="UTF-8"?>
<svg id="Layer_2" xmlns="http://www.w3.org/2000/svg" version="1.1" viewBox="0 0 497.7 144.8">
  <!-- Generator: Adobe Illustrator 30.0.0, SVG Export Plug-In . SVG Version: 2.1.1 Build 123)  -->
  <defs>
    <style>
      .st0 {
        fill: #891b1b;
      }

      .st1 {
        fill: #2d2c2a;
      }

      .st2 {
        fill: #383838;
      }
    </style>
  </defs>
  <g id="Layer_1-2">
    <g>
      <g>
        <path class="st1" d="M128,49.2c.3-.5.3-1.1.4-1.6.8-2.8,3-3.8,5.6-4.2,3.2-.4,6.5,0,9.7-.2.8,0,.9-.2.8-.9-.2-2-1.1-2.8-3.3-3s-4.5,0-6.7,0h-4.2c-.6,0-.7-.2-.7-.7v-3.1c0-.5,0-.7.6-.7h12.3c1.1,0,2.1.2,3.2.5,3.1,1,4.8,3.3,4.9,7,.1,4.6,0,9.3,0,13.9s-.1.9-.5.9c-5.4,0-10.8,0-16.2,0-3.2,0-5.1-2.3-5.7-5.5,0,0,0-.2-.2-.2v-2h0ZM139.9,52.1h3.9c.6,0,.8,0,.7-.7v-3.1c0-.6-.1-.8-.7-.7h-6c-.8,0-1.7,0-2.5.3-1,.3-1.4,1.2-1.3,2.6,0,1,.5,1.4,1.6,1.6,1.5.3,3,0,4.2,0h.1Z"/>
        <path class="st1" d="M169.6,39.3h-12.2c-.6,0-.8,0-.8-.8v-3.4c0-.4,0-.6.6-.6h19.5c.5,0,.7,0,.6.6h0c0,1.4.4,2.9-.1,4s-1.8,1.9-2.7,2.8c-3.1,3-6.3,6.1-9.4,9.1-.2.2-.4.3-.6.5v.2h12.2c.6,0,.7.2.7.7v3.1c0,.7-.1,1.3-.8,1.3h-19.1c-.5,0-.7-.5-.6-1.1h0c0-1.3-.3-2.8.1-3.9.5-1.1,1.7-1.9,2.7-2.8,3.3-3.2,6.7-6.4,10.2-9.8h-.3Z"/>
        <g>
          <path class="st0" d="M186.3,26.6h2.4c.5,0,.6.2.6.7v4.2c0,.5-.1.6-.6.6h-4.9c-.4,0-.7,0-.6-.6v-4.4c0-.4.1-.5.5-.5h2.6Z"/>
          <path class="st1" d="M189.4,45.5v10.3c0,.6-.1,1.2-.7,1.2h-4.7c-.5,0-.7-.5-.7-1v-20.8c0-.5.1-.6.6-.6h4.9c.5,0,.6.2.6.6v10.4h0Z"/>
        </g>
        <path class="st1" d="M208.3,34.6h10.8c1.1,0,2.2,0,3.3.4,3,.8,4.6,2.7,5,5.9.2,1.8.1,3.5.1,5.3v9.7c0,.5-.1,1.1-.7,1.1h-4.4c-.6,0-.8-.6-.8-1.2v-13.2c0-2.3-.8-3-3-3.1h-3.1c-.6,0-.8,0-.7.7v15.7c0,.5-.1,1.1-.7,1.1h-4.6c-.6,0-.7-.6-.7-1.2v-15.6c0-.7-.2-.9-.9-.9h-5.1c-.6,0-.8,0-.8.8v15.5c0,.7-.1,1.4-.9,1.3h-4.4c-.5,0-.6-.5-.6-1v-20.8c0-.6.2-.6.7-.6h11.6-.1Z"/>
        <path class="st1" d="M254.2,45.6v10.3c0,.5,0,1.1-.6,1.1h-11.9c-.9,0-1.7-.6-2.5-.8-3-.8-4.7-2.9-4.9-6.1-.2-3.6,0-7.3,0-10.9v-3.9c0-.5.2-.6.6-.6h4.6c.6,0,.7.2.7.7v12.2c0,.8,0,1.6.2,2.4.2.9.8,1.5,1.7,1.7,2.1.4,4.1,0,6.2.2.5,0,.3-.4.3-.6v-15.9c0-.5,0-.7.7-.7h4.5c.5,0,.7,0,.7.7v10.4h0l-.3-.2Z"/>
        <path class="st1" d="M263,45.2v-5.7c0-.5-.2-.7-.7-.6h-2.8c-.4,0-.7,0-.6-.6v-3.3c0-.4.1-.5.5-.5h2.9c.5,0,.7,0,.7-.7v-6.6c0-.6.1-.8.7-.7h4.4c.6,0,.7.2.7.8v6.5c0,.6.1.9.8.8h4.7c.6,0,.7.2.7.7v3.1c0,.5-.1.7-.7.6h-4.9c-.4,0-.7,0-.7.6,0,3.1-.1,6.1,0,9.2.2,2.5,1.1,3.4,3.6,3.4h1.9c.5,0,.6.2.6.6v3.2c0,.3,0,1-.4,1-2.3,0-4.5.2-6.8-.2-2.7-.5-4.4-2.9-4.7-5.7-.2-2.1,0-4.1-.1-5.9h.2Z"/>
        <g>
          <path class="st1" d="M89.4,78.3c.3-.2.4,0,.5,0,5.5,3.8,10.3,8.3,13.8,14.1,1.5,2.5,2.5,5.1,2.9,8,.6,4.7-.8,8.6-4.4,11.7-2.6,2.2-5.6,3.5-8.8,4.5-4.2,1.3-8.4,1.6-12.7,1.3-10.7-.7-20.5-4.1-29.9-9-6.1-3.2-11.7-7.1-16.5-11.9-3.2-3.2-5.9-6.8-7.5-11.1-1.1-2.9-1.5-6.2-1.1-8.8.2,1.3.3,2.4.6,3.6,1,3.5,2.9,6.6,5.3,9.4,3.4,4,7.4,7.1,11.8,9.9,7.6,4.8,15.8,8.1,24.5,10.2,4.8,1.1,9.7,1.8,14.6,1.7,4,0,8-.7,11.7-2.4,2.8-1.3,5.2-3,6.7-5.8,1.2-2.2,1.6-4.7,1.3-7.2-.5-3.7-2.2-7-4.4-9.9-2.3-3-5-5.6-7.9-8,0,0-.2-.2-.5-.2h0Z"/>
          <path class="st1" d="M81,34.5c4.8.3,9.3,1.2,13.5,3.7,4.8,2.9,7.8,7.1,9.3,12.5,1,3.7,1.2,7.5.8,11.4-.8,7.3-3.3,14-7,20.3-.2.4-.4.4-.6,0-.4-.4-.8-.8-1.2-1.1-.3-.2-.3-.4-.2-.8,1.7-3.3,3.1-6.7,4.1-10.2,1.1-4.1,1.7-8.3,1.4-12.5-.4-5.4-2-10.4-5.5-14.6-2.7-3.1-6-5.3-9.9-6.7-3.6-1.3-7.2-1.8-11.1-1.9.7,0,1.3-.2,1.8-.2"/>
          <path class="st1" d="M93.8,83.8c.5.6,1,1.2,1.5,1.7s0,.3,0,.5c-2.1,3.1-4.5,5.9-7.1,8.6-1.5,1.5-3,2.9-4.6,4.2-.3.2-.4.3-.6,0-.3-.4-.8-.8-.8-1.2s.6-.7,1-1c3.9-3.6,7.3-7.6,10.1-12.1,0-.2.3-.4.4-.7h0Z"/>
          <path class="st1" d="M80.7,101.2c-3.6,2.6-7.2,4.7-11,6.5-.2,0-.5.2-.7.3-1.2.6-2.4,1-3.7.2,0,0,.2,0,.4-.2,4.7-2.1,9.1-4.6,13.1-7.8.3-.3.5-.3.8,0s.6.5,1,.9h0Z"/>
          <path class="st1" d="M54.9,112.3c-2.2.4-4.2.7-6.3.7,1.7-.3,3.5-.6,5.2-1.1.4,0,.7,0,1.1.3h0Z"/>
          <path class="st0" d="M78.8,49.5c-.7,1.9-1.4,3.8-2.1,5.7-1.5,4.3-2.9,8.7-3.7,13.2-.7,3.7-1,7.4-.6,11.1.4,3.6,1.6,7,3.2,10.2,2.1,4,4.7,7.7,7.5,11.2,1.5,1.9,2.9,3.8,4.4,5.8,0,.2.4.3.3.6-1-1.1-2-2.2-3-3.2-3.5-3.8-7.1-7.6-11-10.9-4.1-3.5-8.6-6.4-13.8-7.9-3-.9-6-1.4-9.1-1.8-6.6-.8-13.3-.8-20-.8h-1.3c.3.2.5,0,.8,0,4-.3,8.1-.5,12.1-.9,4.5-.4,9-1,13.3-2.4,5.3-1.6,9.5-4.8,12.6-9.4,2.5-3.6,4.5-7.5,6.3-11.5,1.3-2.8,2.5-5.6,3.7-8.4,0-.2.2-.4.2-.5h.2Z"/>
          <path class="st0" d="M56.8,105.6c1.4-4.5,2.7-8.9,3.4-13.5.3-1.6.4-3.2.5-4.9,0-.5,0-.5.5-.4,1.7.6,3.3,1.4,4.8,2.2.2,0,.4.2,0,.4-2.7,2.9-4.5,6.4-6.2,9.9-.9,1.9-1.8,3.8-2.7,5.7,0,.2,0,.4-.4.5h0Z"/>
          <path class="st0" d="M89.6,80.8c-1.9.2-3.7.4-5.6.7-3,.5-5.9,1.1-8.8,2.2-.7.3-.6.3-.8-.4-.4-1.4-.6-2.8-.8-4.2,0-.4,0-.6.5-.4,4.4,1.1,9,1.6,13.6,1.9h1.6c0,0,.3,0,.4.2h0Z"/>
          <path class="st0" d="M53.3,65.7c1.7,1.7,3.3,3.3,5.1,4.8,1.4,1.2,2.8,2.2,4.3,3.2.3.2.3.3,0,.6-1,.8-2.1,1.5-3.3,2.1-.2,0-.4.2-.5,0-1.3-3.8-3.4-7.1-5.7-10.3,0,0,0,0,0-.2h0c0,0,.2,0,.2,0Z"/>
        </g>
      </g>
      <g>
        <path class="st2" d="M136.6,72.6v17.4h-2.4v-17.4h2.4Z"/>
        <path class="st2" d="M141.2,90v-17.4h3.5l4.7,10.9c.1.3.2.6.4,1,.1.4.3.8.4,1.3.2.5.3.9.5,1.3.1.4.3.9.4,1.2h-.5c.1-.4.3-.8.4-1.2.1-.4.3-.9.5-1.3s.3-.9.5-1.3.3-.7.4-1l4.6-10.9h3.5v17.4h-2.4v-15.5h.2c-.2.5-.4,1.1-.6,1.6-.2.6-.4,1.1-.6,1.6-.2.5-.4,1-.5,1.4-.2.4-.3.8-.4,1.1l-4.3,9.9h-2.1l-4.3-9.9c-.1-.3-.3-.6-.4-1s-.3-.9-.5-1.4-.4-1-.6-1.6c-.2-.6-.4-1.1-.6-1.7h.2v15.6h-2.4Z"/>
        <path class="st2" d="M164.9,90v-17.4h3.5l4.7,10.9c.1.3.2.6.4,1,.1.4.3.8.4,1.3.2.5.3.9.5,1.3.1.4.3.9.4,1.2h-.5c.1-.4.3-.8.4-1.2.1-.4.3-.9.5-1.3s.3-.9.5-1.3.3-.7.4-1l4.6-10.9h3.5v17.4h-2.4v-15.5h.2c-.2.5-.4,1.1-.6,1.6-.2.6-.4,1.1-.6,1.6-.2.5-.4,1-.5,1.4-.2.4-.3.8-.4,1.1l-4.3,9.9h-2.1l-4.3-9.9c-.1-.3-.3-.6-.4-1s-.3-.9-.5-1.4-.4-1-.6-1.6c-.2-.6-.4-1.1-.6-1.7h.2v15.6h-2.4Z"/>
        <path class="st2" d="M188.6,90v-17.4h11.6v2h-9.2v5.7h8.6v2h-8.6v5.8h9.3v2h-11.7Z"/>
        <path class="st2" d="M204.4,90v-17.4h6.5c1.5,0,2.7.2,3.7.7s1.7,1.1,2.1,1.9c.5.8.7,1.7.7,2.8s-.2,1.9-.7,2.7-1.2,1.4-2.1,1.9c-1,.4-2.2.7-3.7.7h-5.2v-2h5.1c1,0,1.8,0,2.4-.4s1.1-.6,1.3-1.1.4-1.1.4-1.8-.1-1.3-.4-1.8-.7-.9-1.3-1.2c-.6-.3-1.4-.4-2.4-.4h-4v15.4h-2.4ZM215.3,90l-4.6-7.8h2.7l4.7,7.8h-2.8,0Z"/>
        <path class="st2" d="M227.4,90.3c-1.4,0-2.6-.2-3.6-.6s-1.8-1-2.4-1.7-.9-1.6-1-2.5h2.5c0,.7.3,1.2.7,1.6s1,.7,1.6.9,1.4.3,2.1.3,1.6,0,2.3-.4,1.2-.6,1.6-1.1c.4-.5.6-1,.6-1.6s-.2-1-.5-1.4c-.3-.3-.8-.6-1.4-.9-.6-.2-1.2-.4-1.9-.6l-2.3-.6c-1.5-.4-2.7-1-3.6-1.7s-1.3-1.7-1.3-2.8.3-1.8.9-2.6c.6-.7,1.4-1.3,2.4-1.7,1-.4,2.1-.6,3.3-.6s2.4.2,3.3.6c1,.4,1.7,1,2.3,1.6.6.7.9,1.5.9,2.4h-2.4c-.1-.8-.6-1.5-1.3-2s-1.7-.7-2.9-.7-1.5,0-2.2.4-1.1.6-1.4,1c-.3.4-.5.9-.5,1.4s.2,1.1.6,1.5c.4.4.9.7,1.5.9.6.2,1.1.4,1.5.5l1.9.5c.5,0,1.1.3,1.7.5.6.2,1.2.5,1.8.9s1,.8,1.4,1.4.5,1.2.5,2-.3,1.8-.8,2.6c-.5.8-1.3,1.4-2.4,1.8s-2.3.7-3.8.7h.3Z"/>
        <path class="st2" d="M240.5,72.6v17.4h-2.4v-17.4h2.4Z"/>
        <path class="st2" d="M250.5,90l-7-17.4h2.6l4,10.3c.2.6.5,1.4.9,2.4.3,1,.7,2.2,1.2,3.6h-.5c.5-1.5.9-2.7,1.2-3.7s.6-1.7.8-2.3l3.9-10.3h2.6l-6.9,17.4h-2.8Z"/>
        <path class="st2" d="M263.2,90v-17.4h11.6v2h-9.2v5.7h8.6v2h-8.6v5.8h9.3v2h-11.7,0Z"/>
        <path class="st2" d="M291.5,85c-.8,0-1.4-.2-2.1-.5-.6-.3-1.1-.8-1.5-1.4s-.6-1.2-.6-1.9.2-1.3.6-1.9.9-1,1.5-1.3,1.3-.5,2.1-.5,1.5.2,2.1.5,1.1.8,1.5,1.3.6,1.2.6,1.9-.2,1.3-.6,1.9-.9,1-1.5,1.4c-.6.3-1.3.5-2.1.5Z"/>
        <path class="st2" d="M311,72.6v17.4h-2.4v-17.4h2.4Z"/>
        <path class="st2" d="M315.6,90v-17.4h2.9l7.8,11.1c.2.3.5.7.7,1.1.3.5.6,1,.9,1.5.3.6.7,1.2,1,1.8h-.3c0-.7-.1-1.3-.2-1.9v-13.6h2.4v17.4h-2.9l-6.9-9.9c-.3-.5-.6-.9-1-1.4-.3-.5-.7-1.1-1.1-1.7-.4-.7-.9-1.5-1.5-2.5h.4c0,.9,0,1.7.1,2.4s0,1.4,0,1.9v11.2h-2.4.1Z"/>
        <path class="st2" d="M334.3,74.6v-2h14.4v2h-6v15.4h-2.4v-15.4h-6Z"/>
        <path class="st2" d="M352.3,90v-17.4h11.6v2h-9.2v5.7h8.6v2h-8.6v5.8h9.3v2h-11.7,0Z"/>
        <path class="st2" d="M368,90v-17.4h6.5c1.5,0,2.7.2,3.7.7s1.7,1.1,2.1,1.9c.5.8.7,1.7.7,2.8s-.2,1.9-.7,2.7c-.5.8-1.2,1.4-2.1,1.9-1,.4-2.2.7-3.7.7h-5.2v-2h5.1c1,0,1.8,0,2.4-.4s1.1-.6,1.3-1.1c.3-.5.4-1.1.4-1.8s-.1-1.3-.4-1.8-.7-.9-1.3-1.2c-.6-.3-1.4-.4-2.4-.4h-4v15.4s-2.4,0-2.4,0ZM379,90l-4.6-7.8h2.7l4.7,7.8h-2.8Z"/>
        <path class="st2" d="M383.3,90l6.9-17.4h2.8l7,17.4h-2.6l-4-10.3c-.2-.6-.5-1.4-.9-2.4-.3-1-.7-2.2-1.2-3.6h.5c-.5,1.5-.9,2.7-1.2,3.7-.3,1-.6,1.7-.8,2.3l-3.9,10.3h-2.6,0ZM386.8,85.2v-1.9h9.8v1.9h-9.8Z"/>
        <path class="st2" d="M409.9,90.2c-1.6,0-3.1-.4-4.4-1.1s-2.3-1.7-3-3.1-1.1-2.9-1.1-4.7.4-3.4,1.1-4.8,1.7-2.4,3-3.1,2.7-1.1,4.4-1.1,1.9,0,2.7.4,1.6.6,2.3,1.1,1.3,1.1,1.7,1.8c.5.7.8,1.5.9,2.4h-2.4c-.1-.6-.4-1.1-.7-1.6-.3-.5-.7-.8-1.2-1.1-.5-.3-1-.5-1.6-.7s-1.2-.2-1.8-.2c-1.1,0-2.2.3-3.1.8s-1.7,1.3-2.2,2.3-.8,2.3-.8,3.8.3,2.7.8,3.7,1.3,1.8,2.2,2.3c.9.5,2,.8,3.1.8s1.2,0,1.8-.2c.6-.2,1.1-.4,1.6-.7.5-.3.9-.7,1.2-1.1.3-.5.6-1,.7-1.6h2.4c-.2.9-.5,1.7-.9,2.4-.5.7-1,1.3-1.7,1.8s-1.5.9-2.3,1.1c-.9.3-1.8.4-2.7.4h0Z"/>
        <path class="st2" d="M420.2,74.6v-2h14.4v2h-6v15.4h-2.4v-15.4h-6Z"/>
        <path class="st2" d="M440.7,72.6v17.4h-2.4v-17.4h2.4Z"/>
        <path class="st2" d="M450.7,90l-7-17.4h2.6l4,10.3c.2.6.5,1.4.9,2.4.3,1,.7,2.2,1.2,3.6h-.5c.5-1.5.9-2.7,1.2-3.7s.6-1.7.8-2.3l3.9-10.3h2.6l-6.9,17.4h-2.8Z"/>
        <path class="st2" d="M463.4,90v-17.4h11.6v2h-9.2v5.7h8.6v2h-8.6v5.8h9.3v2h-11.7,0Z"/>
      </g>
      <g>
        <path class="st2" d="M140.4,118.3c-1.7,0-3.3-.4-4.6-1.1s-2.4-1.7-3.2-3.1c-.8-1.3-1.2-2.9-1.2-4.7s.4-3.4,1.2-4.8,1.8-2.4,3.2-3.1c1.3-.7,2.9-1.1,4.6-1.1s2,0,2.9.4,1.7.6,2.4,1.1,1.3,1.1,1.8,1.8c.5.7.8,1.5,1,2.4h-2.6c-.1-.6-.4-1.1-.7-1.6s-.8-.8-1.3-1.1c-.5-.3-1.1-.5-1.7-.7s-1.2-.2-1.9-.2c-1.2,0-2.3.3-3.3.8s-1.7,1.3-2.3,2.3-.9,2.3-.9,3.8.3,2.7.9,3.7c.6,1,1.3,1.8,2.3,2.3s2.1.8,3.3.8,1.3,0,1.9-.2c.6-.2,1.2-.4,1.7-.7.5-.3.9-.7,1.3-1.1.3-.5.6-1,.7-1.6h2.6c-.2.9-.5,1.7-1,2.4s-1.1,1.3-1.8,1.8-1.5.9-2.4,1.1-1.9.4-2.9.4h0Z"/>
        <path class="st2" d="M155.1,100.7v17.4h-2.6v-17.4h2.6Z"/>
        <path class="st2" d="M159.9,118v-17.4h3l8.2,11.1c.2.3.5.7.8,1.1s.6,1,1,1.5.7,1.2,1,1.8h-.4c0-.7-.1-1.3-.2-1.9v-13.6h2.6v17.4h-3.1l-7.3-9.9c-.3-.5-.7-.9-1-1.4s-.7-1.1-1.2-1.7c-.4-.7-1-1.5-1.6-2.5h.5c0,.9,0,1.7.1,2.4v13.1h-2.6.2Z"/>
        <path class="st2" d="M180.8,118v-17.4h12.3v2h-9.7v5.7h9v2h-9v5.8h9.8v2h-12.4Z"/>
        <path class="st2" d="M197.4,118v-17.4h3.7l5,10.9c.1.3.3.6.4,1s.3.8.5,1.3.3.9.5,1.3.3.9.4,1.2h-.6c.1-.4.3-.8.4-1.2.2-.4.3-.9.5-1.3.2-.5.3-.9.5-1.3s.3-.7.4-1l4.9-10.9h3.7v17.4h-2.5v-15.5h.2c-.2.5-.4,1.1-.6,1.6-.2.6-.4,1.1-.6,1.6-.2.5-.4,1-.6,1.4-.2.4-.3.8-.5,1.1l-4.5,9.9h-2.2l-4.6-9.9c-.1-.3-.3-.6-.4-1s-.4-.9-.6-1.4-.4-1-.6-1.6c-.2-.6-.4-1.1-.7-1.7h.2v15.6h-2.4.1Z"/>
        <path class="st2" d="M220.7,118l7.3-17.4h3l7.4,17.4h-2.7l-4.3-10.3c-.3-.6-.6-1.4-.9-2.4s-.8-2.2-1.3-3.6h.5c-.5,1.5-.9,2.7-1.3,3.7s-.7,1.7-.9,2.3l-4.2,10.3h-2.7,0ZM224.4,113.2v-1.9h10.3v1.9h-10.3Z"/>
        <path class="st2" d="M238.1,102.6v-2h15.2v2h-6.3v15.4h-2.6v-15.4h-6.3,0Z"/>
        <path class="st2" d="M259.7,100.7v17.4h-2.6v-17.4h2.6Z"/>
        <path class="st2" d="M272.7,118.3c-1.7,0-3.3-.4-4.6-1.1-1.3-.7-2.4-1.7-3.2-3.1s-1.2-2.9-1.2-4.7.4-3.4,1.2-4.8,1.8-2.4,3.2-3.1c1.3-.7,2.9-1.1,4.6-1.1s2,0,2.9.4,1.7.6,2.4,1.1,1.3,1.1,1.8,1.8c.5.7.8,1.5,1,2.4h-2.6c-.1-.6-.4-1.1-.7-1.6-.3-.5-.8-.8-1.3-1.1-.5-.3-1.1-.5-1.7-.7s-1.2-.2-1.9-.2c-1.2,0-2.3.3-3.3.8s-1.7,1.3-2.3,2.3-.9,2.3-.9,3.8.3,2.7.9,3.7,1.3,1.8,2.3,2.3,2.1.8,3.3.8,1.3,0,1.9-.2,1.2-.4,1.7-.7c.5-.3.9-.7,1.3-1.1.3-.5.6-1,.7-1.6h2.6c-.2.9-.5,1.7-1,2.4-.5.7-1.1,1.3-1.8,1.8-.7.5-1.5.9-2.4,1.1-.9.3-1.9.4-2.9.4h0Z"/>
        <path class="st2" d="M299.7,118v-17.4h11.8v2h-9.3v5.7h8.7v2h-8.7v5.8h9.4v2h-11.9Z"/>
        <path class="st2" d="M314.1,118l7.6-9.7v1.6l-7.1-9.3h2.9l2.8,3.7c.4.5.8,1,1,1.4s.5.7.7,1.1.5.8.7,1.3h-.4c.3-.5.5-.9.7-1.3s.5-.7.7-1.1c.3-.4.6-.8,1-1.4l2.8-3.7h2.8l-7.1,9.2v-1.6l7.5,9.8h-2.8l-3.4-4.4c-.4-.5-.7-.9-.9-1.2-.3-.3-.5-.7-.7-1s-.5-.8-.7-1.2h.5c-.3.5-.5.9-.7,1.2s-.5.7-.7,1c-.3.4-.6.8-1,1.3l-3.4,4.4h-2.8Z"/>
        <path class="st2" d="M333.8,118v-17.4h6.6c1.5,0,2.7.2,3.7.7s1.7,1.2,2.2,2,.7,1.8.7,2.8-.2,2-.7,2.8-1.2,1.5-2.2,2-2.2.7-3.7.7h-4.7v-1.9h4.6c1,0,1.8-.2,2.5-.5.6-.3,1.1-.7,1.4-1.3s.4-1.2.4-1.8-.1-1.3-.4-1.8-.7-1-1.4-1.3c-.6-.3-1.5-.5-2.5-.5h-4v15.4h-2.5Z"/>
        <path class="st2" d="M350.8,118v-17.4h11.8v2h-9.3v5.7h8.7v2h-8.7v5.8h9.4v2h-11.9Z"/>
        <path class="st2" d="M366.8,118v-17.4h6.6c1.5,0,2.7.2,3.7.7s1.7,1.1,2.2,1.9.7,1.7.7,2.8-.2,1.9-.7,2.7c-.5.8-1.2,1.4-2.2,1.9-1,.4-2.2.7-3.7.7h-5.3v-2h5.1c1,0,1.8,0,2.5-.4.6-.3,1.1-.6,1.4-1.1s.4-1.1.4-1.8-.1-1.3-.4-1.8-.7-.9-1.4-1.2c-.6-.3-1.5-.4-2.5-.4h-4v15.4h-2.5,0ZM377.9,118l-4.7-7.8h2.8l4.8,7.8h-2.9,0Z"/>
        <path class="st2" d="M386.4,100.7v17.4h-2.5v-17.4h2.5Z"/>
        <path class="st2" d="M391,118v-17.4h11.8v2h-9.3v5.7h8.7v2h-8.7v5.8h9.4v2h-11.9Z"/>
        <path class="st2" d="M407,118v-17.4h2.9l7.9,11.1c.2.3.5.7.8,1.1.3.5.6,1,1,1.5.3.6.7,1.2,1,1.8h-.4c0-.7-.1-1.3-.2-1.9v-13.6h2.5v17.4h-2.9l-7-9.9c-.3-.5-.6-.9-1-1.4-.3-.5-.7-1.1-1.1-1.7-.4-.7-.9-1.5-1.5-2.5h.5c0,.9,0,1.7.1,2.4s0,1.4,0,1.9v11.2h-2.6Z"/>
        <path class="st2" d="M434.9,118.3c-1.7,0-3.1-.4-4.4-1.1s-2.3-1.7-3.1-3.1-1.1-2.9-1.1-4.7.4-3.4,1.1-4.8,1.8-2.4,3.1-3.1c1.3-.7,2.8-1.1,4.4-1.1s1.9,0,2.8.4,1.7.6,2.3,1.1,1.3,1.1,1.7,1.8c.5.7.8,1.5,1,2.4h-2.5c-.1-.6-.4-1.1-.7-1.6-.3-.5-.7-.8-1.2-1.1-.5-.3-1-.5-1.6-.7s-1.2-.2-1.8-.2c-1.2,0-2.2.3-3.1.8s-1.7,1.3-2.2,2.3-.8,2.3-.8,3.8.3,2.7.8,3.7c.6,1,1.3,1.8,2.2,2.3.9.5,2,.8,3.1.8s1.2,0,1.8-.2c.6-.2,1.1-.4,1.6-.7.5-.3.9-.7,1.2-1.1.3-.5.6-1,.7-1.6h2.5c-.2.9-.5,1.7-.9,2.4-.5.7-1,1.3-1.7,1.8s-1.5.9-2.3,1.1c-.9.3-1.8.4-2.8.4h-.1Z"/>
        <path class="st2" d="M446.5,118v-17.4h11.8v2h-9.3v5.7h8.7v2h-8.7v5.8h9.4v2h-11.9Z"/>
        <path class="st2" d="M468.7,118.3c-1.4,0-2.6-.2-3.6-.6s-1.8-1-2.4-1.7-.9-1.6-1-2.5h2.5c0,.7.3,1.2.7,1.6s1,.7,1.6.9,1.4.3,2.1.3,1.7,0,2.4-.4,1.2-.6,1.7-1.1c.4-.5.6-1,.6-1.6s-.2-1-.5-1.4c-.4-.3-.8-.6-1.4-.9s-1.2-.4-1.9-.6l-2.3-.6c-1.6-.4-2.8-1-3.6-1.7s-1.3-1.7-1.3-2.8.3-1.8.9-2.6c.6-.7,1.4-1.3,2.4-1.7,1-.4,2.1-.6,3.4-.6s2.4.2,3.4.6,1.8,1,2.3,1.6c.6.7.9,1.5.9,2.4h-2.4c-.1-.8-.6-1.5-1.4-2s-1.8-.7-2.9-.7-1.6,0-2.2.4-1.1.6-1.5,1-.5.9-.5,1.4.2,1.1.6,1.5.9.7,1.5.9,1.1.4,1.6.5l1.9.5c.5,0,1.1.3,1.7.5s1.2.5,1.8.9,1,.8,1.4,1.4.6,1.2.6,2-.3,1.8-.8,2.6c-.6.8-1.3,1.4-2.4,1.8s-2.3.7-3.8.7h-.1Z"/>
      </g>
    </g>
  </g>
</svg>