<?xml version="1.0" encoding="UTF-8"?>
<svg id="Layer_2" data-name="Layer 2" xmlns="http://www.w3.org/2000/svg" viewBox="0 0 345.095 354.303">
  <defs>
    <style>
      .cls-1 {
        fill: #fff;
      }

      .cls-2 {
        fill: #a11d21;
      }
    </style>
  </defs>
  <g id="Layer_1-2" data-name="Layer 1">
    <g>
      <path class="cls-1" d="M271.767,185.858c1.176-.665,1.567-.125,1.969.154,23.31,16.195,43.866,35.105,58.449,59.81,6.198,10.5,10.741,21.659,12.335,33.865,2.599,19.908-3.596,36.512-18.808,49.637-10.896,9.401-23.82,14.879-37.412,19.059-17.659,5.43-35.736,6.711-54.04,5.501-45.248-2.992-87.147-17.272-126.995-38.194-25.759-13.525-49.5-29.937-70.033-50.702-13.511-13.664-24.913-28.813-31.936-46.919-4.713-12.15-6.487-26.226-4.478-37.212.64,5.523,1.303,10.379,2.651,15.109,4.292,15.063,12.387,27.985,22.477,39.746,14.411,16.799,31.588,30.339,50.248,42.057,32.256,20.256,67.04,34.511,104.064,43.282,20.421,4.838,41.126,7.616,62.165,7.143,17.175-.386,33.945-2.976,49.752-10.122,11.935-5.395,22.071-12.934,28.577-24.641,5.294-9.526,6.762-19.767,5.353-30.451-2.097-15.897-9.381-29.547-18.748-42.216-9.568-12.942-21.104-23.97-33.619-34.014-.469-.377-.863-.866-1.969-.891Z"/>
      <path class="cls-1" d="M236.403.008c20.193,1.13,39.554,5.309,57.113,15.845,20.379,12.229,33.218,30.207,39.612,52.908,4.451,15.804,5.201,31.92,3.528,48.198-3.194,31.078-14.123,59.479-29.691,86.303-1.006,1.733-1.529,1.507-2.707.31-1.621-1.648-3.344-3.219-5.17-4.634-1.332-1.033-1.474-1.854-.665-3.377,7.36-13.85,13.193-28.315,17.318-43.464,4.741-17.409,7.059-35.1,5.84-53.134-1.551-22.959-8.424-43.978-23.525-61.796-11.299-13.333-25.514-22.417-41.864-28.286-15.105-5.422-30.763-7.703-47.289-8.05,2.909-.624,5.335-.708,7.763-.831"/>
      <path class="cls-1" d="M290.746,209.245c2.255,2.526,4.31,4.913,6.469,7.202.819.868.438,1.421-.08,2.171-9.006,13.063-19.089,25.236-30.209,36.548-6.176,6.282-12.681,12.209-19.402,17.906-1.064.902-1.616,1.067-2.436-.235-1.107-1.757-3.367-3.369-3.39-5.067-.024-1.761,2.642-2.939,4.156-4.335,16.55-15.256,30.958-32.301,43.001-51.331.568-.898,1.172-1.775,1.891-2.861Z"/>
      <path class="cls-1" d="M234.755,283.069c-15.091,11.062-30.366,20.094-46.583,27.531-.978.449-1.979.859-2.925,1.368-5.052,2.719-10.18,4.369-15.616.959.186-.539,1.055-.586,1.7-.87,19.89-8.754,38.505-19.673,55.738-32.918,1.394-1.072,2.163-1.076,3.341.248,1.168,1.312,2.69,2.309,4.344,3.682Z"/>
      <path class="cls-1" d="M125.597,330.217c-9.293,1.567-17.978,2.93-26.806,3.076,7.36-1.347,14.701-2.72,21.956-4.505,1.706-.42,2.955.379,4.85,1.428Z"/>
      <path class="cls-2" d="M227.014,63.307c-2.968,7.996-6.014,15.963-8.888,23.993-6.552,18.309-12.231,36.873-15.801,56.023-2.914,15.632-4.3,31.361-2.519,47.241,1.714,15.286,6.605,29.592,13.585,43.23,8.764,17.123,20.15,32.507,31.731,47.756,6.211,8.178,12.515,16.285,18.747,24.447.567.742,1.588,1.357,1.101,2.743-4.278-4.638-8.475-9.225-12.711-13.774-14.953-16.057-29.948-32.07-46.579-46.445-17.344-14.991-36.382-27.007-58.533-33.632-12.603-3.77-25.474-6.151-38.523-7.64-28.22-3.222-56.568-3.221-84.911-3.321-1.881-.007-3.753-.102-5.621-.328,1.089.906,2.156.079,3.214.003,17.172-1.233,34.372-2.122,51.508-3.815,19.126-1.89,38.157-4.294,56.637-9.98,22.588-6.95,40.154-20.553,53.67-39.715,10.811-15.327,19.117-32.028,26.848-49.033,5.358-11.785,10.507-23.665,15.751-35.502.34-.768.695-1.529,1.043-2.294.083.015.166.029.249.044Z"/>
      <path class="cls-2" d="M133.549,301.577c5.819-19.097,11.416-37.823,14.548-57.174,1.111-6.862,1.888-13.766,2.012-20.716.037-2.065.554-2.205,2.324-1.538,7.078,2.669,13.96,5.739,20.56,9.443.895.502,1.551.761.483,1.905-11.46,12.285-19.153,26.976-26.512,41.862-3.96,8.011-7.758,16.103-11.653,24.147-.337.696-.462,1.622-1.762,2.071Z"/>
      <path class="cls-2" d="M272.82,196.499c-7.936.788-15.903,1.567-23.818,2.8-12.659,1.972-25.125,4.687-37.165,9.182-3.168,1.183-2.588,1.456-3.539-1.884-1.65-5.793-2.665-11.715-3.4-17.693-.224-1.824.112-2.42,2.107-1.905,18.892,4.88,38.185,6.998,57.602,8.232,2.232.142,4.465.286,6.698.424.614.038,1.292-.074,1.515.844Z"/>
      <path class="cls-2" d="M118.506,132.26c7.05,7.03,14.086,14.071,21.76,20.441,5.884,4.884,11.95,9.519,18.422,13.592,1.476.929,1.328,1.416.088,2.383-4.391,3.424-9.007,6.482-13.924,9.098-.988.525-1.504.683-1.964-.616-5.643-15.926-14.282-30.188-24.343-43.654-.18-.241-.29-.534-.433-.803.131-.147.262-.295.393-.442Z"/>
    </g>
  </g>
</svg>