<svg version="1.2" xmlns="http://www.w3.org/2000/svg" viewBox="0 0 345.095 354.303" width="300" height="308">
	<style>
		.s0 { fill: #0f1012 } 
		.s1 { fill: #a11d21 } 
	</style>
	<g id="Layer_1-2">
		<g>
			<path class="s0" d="m271.77 185.86c1.17-0.67 1.56-0.13 1.97 0.15 23.31 16.2 43.86 35.11 58.45 59.81 6.19 10.5 10.74 21.66 12.33 33.87 2.6 19.91-3.6 36.51-18.81 49.63-10.89 9.41-23.82 14.88-37.41 19.06-17.66 5.43-35.74 6.71-54.04 5.5-45.25-2.99-87.15-17.27-126.99-38.19-25.76-13.52-49.5-29.94-70.04-50.7-13.51-13.67-24.91-28.82-31.93-46.92-4.72-12.15-6.49-26.23-4.48-37.21 0.64 5.52 1.3 10.38 2.65 15.11 4.29 15.06 12.39 27.98 22.48 39.74 14.41 16.8 31.58 30.34 50.24 42.06 32.26 20.26 67.04 34.51 104.07 43.28 20.42 4.84 41.12 7.62 62.16 7.14 17.18-0.38 33.95-2.97 49.76-10.12 11.93-5.39 22.07-12.93 28.57-24.64 5.3-9.53 6.76-19.77 5.36-30.45-2.1-15.9-9.39-29.55-18.75-42.22-9.57-12.94-21.11-23.97-33.62-34.01-0.47-0.38-0.86-0.87-1.97-0.89z"/>
			<path class="s0" d="m236.4 0.01c20.2 1.13 39.56 5.31 57.12 15.84 20.37 12.23 33.21 30.21 39.61 52.91 4.45 15.8 5.2 31.92 3.53 48.2-3.2 31.08-14.13 59.48-29.69 86.3-1.01 1.74-1.53 1.51-2.71 0.31-1.62-1.65-3.35-3.22-5.17-4.63-1.33-1.03-1.48-1.86-0.67-3.38 7.36-13.85 13.2-28.31 17.32-43.46 4.74-17.41 7.06-35.1 5.84-53.14-1.55-22.96-8.42-43.98-23.52-61.79-11.3-13.34-25.52-22.42-41.87-28.29-15.1-5.42-30.76-7.7-47.29-8.05 2.91-0.62 5.34-0.71 7.77-0.83"/>
			<path class="s0" d="m290.75 209.25c2.25 2.52 4.31 4.91 6.46 7.2 0.82 0.86 0.44 1.42-0.08 2.17q-13.51 19.59-30.2 36.55c-6.18 6.28-12.69 12.21-19.41 17.9-1.06 0.9-1.61 1.07-2.43-0.23-1.11-1.76-3.37-3.37-3.39-5.07-0.03-1.76 2.64-2.94 4.15-4.33 16.55-15.26 30.96-32.31 43.01-51.34 0.56-0.89 1.17-1.77 1.89-2.85z"/>
			<path class="s0" d="m234.75 283.07c-15.09 11.06-30.36 20.09-46.58 27.53-0.98 0.45-1.98 0.86-2.92 1.37-5.06 2.72-10.18 4.37-15.62 0.96 0.19-0.54 1.06-0.59 1.7-0.87 19.89-8.76 38.51-19.68 55.74-32.92 1.39-1.07 2.16-1.08 3.34 0.25 1.17 1.31 2.69 2.31 4.34 3.68z"/>
			<path class="s0" d="m125.6 330.22c-9.3 1.56-17.98 2.93-26.81 3.07 7.36-1.34 14.7-2.72 21.96-4.5 1.7-0.42 2.95 0.38 4.85 1.43z"/>
			<path class="s1" d="m227.01 63.31c-2.96 7.99-6.01 15.96-8.88 23.99-6.56 18.31-12.23 36.87-15.8 56.02-2.92 15.64-4.3 31.36-2.52 47.24 1.71 15.29 6.6 29.6 13.58 43.23 8.77 17.13 20.15 32.51 31.73 47.76 6.21 8.18 12.52 16.29 18.75 24.45 0.57 0.74 1.59 1.35 1.1 2.74-4.28-4.64-8.47-9.23-12.71-13.77-14.95-16.06-29.95-32.07-46.58-46.45-17.34-14.99-36.38-27.01-58.53-33.63-12.61-3.77-25.48-6.15-38.53-7.64-28.22-3.22-56.56-3.22-84.91-3.32q-2.82 0-5.62-0.33c1.09 0.91 2.16 0.08 3.22 0 17.17-1.23 34.37-2.12 51.5-3.81 19.13-1.89 38.16-4.3 56.64-9.98 22.59-6.95 40.15-20.55 53.67-39.72 10.81-15.32 19.12-32.02 26.85-49.03 5.36-11.78 10.51-23.66 15.75-35.5q0.52-1.15 1.04-2.3 0.13 0.03 0.25 0.05z"/>
			<path class="s1" d="m133.55 301.58c5.82-19.1 11.41-37.83 14.55-57.18 1.11-6.86 1.89-13.76 2.01-20.71 0.04-2.07 0.55-2.21 2.32-1.54 7.08 2.67 13.96 5.74 20.56 9.44 0.9 0.5 1.55 0.76 0.49 1.91-11.46 12.28-19.16 26.97-26.52 41.86-3.96 8.01-7.75 16.1-11.65 24.15-0.34 0.69-0.46 1.62-1.76 2.07z"/>
			<path class="s1" d="m272.82 196.5c-7.94 0.79-15.9 1.57-23.82 2.8-12.66 1.97-25.12 4.69-37.16 9.18-3.17 1.18-2.59 1.46-3.54-1.88-1.65-5.8-2.67-11.72-3.4-17.7-0.23-1.82 0.11-2.42 2.1-1.9 18.9 4.88 38.19 7 57.61 8.23q3.35 0.22 6.69 0.43c0.62 0.03 1.3-0.08 1.52 0.84z"/>
			<path class="s1" d="m118.51 132.26c7.05 7.03 14.08 14.07 21.76 20.44 5.88 4.88 11.95 9.52 18.42 13.59 1.47 0.93 1.33 1.42 0.09 2.39-4.4 3.42-9.01 6.48-13.93 9.09-0.99 0.53-1.5 0.69-1.96-0.61-5.65-15.93-14.28-30.19-24.35-43.66-0.18-0.24-0.29-0.53-0.43-0.8q0.2-0.22 0.4-0.44z"/>
		</g>
	</g>
</svg>