<?xml version="1.0" encoding="UTF-8"?>
<svg id="Layer_2" data-name="Layer 2" xmlns="http://www.w3.org/2000/svg" viewBox="0 0 410.902 84.063">
  <defs>
    <style>
      .cls-1 {
        fill: #fff;
      }

      .cls-2 {
        fill: #a11d21;
      }
    </style>
  </defs>
  <g id="Layer_1-2" data-name="Layer 1">
    <g>
      <path class="cls-1" d="M0,63.327c.853-1.404.701-3.057,1.128-4.573,2.219-7.895,8.261-10.706,15.582-11.63,8.992-1.135,18.041-.393,27.064-.473,2.136-.019,2.571-.57,2.321-2.604-.691-5.61-3.066-7.884-9.316-8.513-6.238-.627-12.496-.288-18.746-.353-3.937-.041-7.877-.093-11.809.032-1.683.054-2.072-.523-2.008-2.095.12-2.929.1-5.869.005-8.8-.043-1.349.223-1.877,1.74-1.866,11.424.082,22.849.04,34.274.103,3.02.017,5.997.569,8.868,1.506,8.646,2.821,13.464,9.268,13.719,19.543.323,12.964.104,25.941.16,38.912.005,1.124-.365,1.469-1.456,1.46-15.051-.13-30.11.358-45.151-.249-9.031-.364-14.156-5.192-15.91-14.147-.062-.314-.107-.596-.465-.69v-5.563ZM33.363,71.645c4.098,0,7.497-.079,10.89.035,1.557.052,2.173-.285,2.087-1.989-.149-2.927-.13-5.87-.006-8.799.068-1.596-.371-2.111-2.027-2.08-5.556.104-11.116.008-16.674.055-2.31.019-4.644.066-6.867.812-2.799.94-3.984,3.335-3.643,7.18.238,2.689,1.464,3.912,4.459,4.425,4.143.71,8.323.178,11.78.36Z"/>
      <path class="cls-1" d="M116.348,35.787h-3.116c-10.348,0-20.696-.036-31.043.037-1.65.012-2.334-.274-2.236-2.118.166-3.158.091-6.332.023-9.497-.026-1.212.177-1.756,1.603-1.753,18.147.05,36.294.047,54.441.004,1.327-.003,1.831.388,1.622,1.677-.012.075-.001.154-.002.231-.021,3.783.986,7.992-.355,11.229-1.302,3.142-5.001,5.297-7.667,7.865-8.788,8.465-17.582,16.924-26.384,25.374-.537.516-1.165.937-1.751,1.402.083.176.165.353.248.529h2.434c10.502,0,21.004.04,31.506-.042,1.654-.013,2.081.443,2.008,2.048-.134,2.929-.161,5.875.006,8.801.108,1.89-.373,2.457-2.359,2.438-11.196-.107-22.394-.052-33.591-.052-6.641,0-13.282-.037-19.923.03-1.384.014-2.069-.308-1.815-1.783.013-.075.001-.154.002-.231.03-3.702-.934-7.815.375-10.99,1.271-3.082,4.854-5.223,7.459-7.737,9.326-9,18.669-17.983,28.514-27.462Z"/>
      <g>
        <path class="cls-2" d="M163.139.222c2.233,0,4.472.095,6.698-.034,1.485-.086,1.801.466,1.772,1.838-.084,3.927-.074,7.857-.004,11.784.023,1.294-.356,1.737-1.689,1.716-4.542-.073-9.087-.06-13.63-.006-1.215.014-1.822-.21-1.794-1.622.08-4.081.059-8.165.009-12.246-.014-1.12.388-1.475,1.477-1.447,2.386.06,4.774.019,7.161.018Z"/>
        <path class="cls-1" d="M171.582,53.202c0,9.569-.034,19.139.034,28.708.011,1.568-.332,2.136-2.012,2.09-4.395-.12-8.795-.079-13.192-.017-1.303.019-1.921-.184-1.916-1.732.051-19.37.046-38.741.007-58.111-.003-1.322.384-1.702,1.693-1.681,4.551.074,9.105.095,13.655-.01,1.472-.034,1.772.423,1.763,1.812-.061,9.646-.032,19.293-.032,28.94Z"/>
      </g>
      <path class="cls-1" d="M224.508,22.523c10.038,0,20.075-.01,30.113.006,3.099.005,6.159.406,9.155,1.201,8.502,2.258,12.982,7.64,13.88,16.391.506,4.936.304,9.875.327,14.813.043,9.036-.026,18.072.049,27.107.013,1.533-.414,1.984-1.929,1.95-4.09-.092-8.187-.122-12.275.01-1.806.058-2.331-.427-2.321-2.288.062-12.124-.01-24.249-.038-36.374,0-.154-.009-.309-.016-.463-.275-6.429-2.115-8.388-8.503-8.758-2.925-.169-5.87.009-8.798-.132-1.596-.077-2.097.376-2.076,2.027.091,7.104.039,14.21.039,21.315,0,7.569-.037,15.137.032,22.705.013,1.48-.328,2.006-1.906,1.964-4.244-.113-8.494-.113-12.738-.001-1.628.043-2.066-.435-2.059-2.061.063-14.519-.001-29.039.082-43.557.011-1.922-.478-2.466-2.41-2.407-4.783.147-9.575.131-14.359.004-1.724-.046-2.18.39-2.17,2.146.078,14.442.002,28.884.093,43.326.013,1.997-.401,2.663-2.506,2.567-4.084-.186-8.183-.095-12.274-.031-1.274.02-1.74-.319-1.737-1.678.04-19.385.048-38.77-.011-58.154-.005-1.607.669-1.689,1.929-1.685,10.81.037,21.62.021,32.429.021,0,.012,0,.023,0,.035Z"/>
      <path class="cls-1" d="M352.961,53.341c0,9.577-.019,19.154.022,28.731.006,1.295-.177,1.943-1.727,1.92-11.117-.17-22.237.201-33.353-.237-2.403-.095-4.761-.503-7.067-1.122-8.421-2.262-13.169-8.07-13.743-17.039-.652-10.182-.16-20.384-.277-30.576-.042-3.63.051-7.261-.036-10.889-.032-1.347.422-1.69,1.711-1.668,4.246.072,8.496.118,12.739-.018,1.661-.053,1.859.594,1.853,1.993-.044,11.353-.036,22.707-.016,34.061.004,2.235.051,4.469.547,6.677.594,2.645,2.21,4.183,4.826,4.646,5.749,1.017,11.555.309,17.332.508,1.34.046.917-.993.921-1.653.029-5.175.016-10.349.016-15.524,0-9.577.026-19.155-.028-28.731-.008-1.432.251-2.024,1.875-1.973,4.166.129,8.34.115,12.507.006,1.537-.04,1.939.411,1.929,1.927-.066,9.654-.034,19.309-.034,28.963Z"/>
      <path class="cls-1" d="M377.377,52.35c0-5.93-.055-10.873.034-15.814.026-1.451-.424-1.851-1.83-1.795-2.621.105-5.25-.017-7.873.049-1.211.031-1.821-.191-1.773-1.62.104-3.085.076-6.177.009-9.265-.024-1.104.299-1.472,1.424-1.441,2.7.074,5.407-.06,8.104.057,1.498.065,1.964-.353,1.941-1.903-.091-6.176.016-12.355-.074-18.532-.024-1.605.401-2.125,2.045-2.079,4.089.113,8.185.125,12.273-.004,1.725-.055,2.007.599,1.988,2.125-.078,6.022.029,12.047-.07,18.068-.028,1.74.318,2.413,2.244,2.343,4.395-.161,8.802.033,13.198-.094,1.627-.047,1.922.542,1.875,1.976-.093,2.854-.105,5.716.005,8.569.056,1.441-.392,1.841-1.82,1.813-4.553-.089-9.109-.007-13.664-.051-1.181-.011-1.854.146-1.827,1.603.162,8.568-.287,17.146.242,25.705.433,6.999,3.042,9.372,10.089,9.566,1.774.049,3.557.105,5.325-.011,1.384-.091,1.679.457,1.646,1.719-.078,3.01-.021,6.022-.028,9.034-.002.753.177,1.628-1.063,1.59-6.317-.191-12.69.639-18.943-.566-7.674-1.479-12.309-6.861-13.159-14.673-.628-5.779-.142-11.575-.32-16.372Z"/>
    </g>
  </g>
</svg>